<?xml version="1.0" encoding="UTF-8" standalone="no"?>
<!-- Created with Inkscape (http://www.inkscape.org/) -->
<svg xmlns:dc="http://purl.org/dc/elements/1.1/" xmlns:cc="http://creativecommons.org/ns#" xmlns:rdf="http://www.w3.org/1999/02/22-rdf-syntax-ns#" xmlns:svg="http://www.w3.org/2000/svg" xmlns="http://www.w3.org/2000/svg" xmlns:xlink="http://www.w3.org/1999/xlink" version="1.1" width="640" height="320" id="svg2">
  <defs id="defs4">
    <linearGradient id="linearGradient4059">
      <stop id="stop4061" style="stop-color:#000000;stop-opacity:1" offset="0"/>
      <stop id="stop4063" style="stop-color:#000000;stop-opacity:0" offset="1"/>
    </linearGradient>
    <linearGradient id="linearGradient4053">
      <stop id="stop4085" style="stop-color:#cccccc;stop-opacity:0.49803922" offset="0"/>
      <stop id="stop4087" style="stop-color:#ffffff;stop-opacity:0.49803922" offset="1"/>
      <stop id="stop4057" style="stop-color:#ffffff;stop-opacity:0" offset="1"/>
    </linearGradient>
    <linearGradient id="linearGradient4033">
      <stop id="stop4041" style="stop-color:#cccccc;stop-opacity:1" offset="0"/>
      <stop id="stop4037" style="stop-color:#ffffff;stop-opacity:1" offset="1"/>
    </linearGradient>
    <radialGradient cx="353.97498" cy="898.23724" r="242.24998" fx="353.97498" fy="898.23724" id="radialGradient4067" xlink:href="#linearGradient4059" gradientUnits="userSpaceOnUse" gradientTransform="matrix(1, 0, 0, 0.465944, 0, 479.709)"/>
    <linearGradient x1="343.44891" y1="784.39307" x2="343.28784" y2="899.65143" id="linearGradient4083" xlink:href="#linearGradient4053" gradientUnits="userSpaceOnUse"/>
  </defs>
  <metadata id="metadata7">
    <rdf:RDF>
      <cc:Work rdf:about="">
        <dc:format>image/svg+xml</dc:format>
        <dc:type rdf:resource="http://purl.org/dc/dcmitype/StillImage"/>
        <dc:title/>
      </cc:Work>
    </rdf:RDF>
  </metadata>
  <g transform="translate(0, -732.362)" id="layer1" style="display:inline">
    <g id="text3012" style="font-size:40px;font-style:normal;font-weight:normal;line-height:125%;letter-spacing:0px;word-spacing:0px;fill:#000000;fill-opacity:1;stroke:none;font-family:Sans">
      <path d="m 62.875,946.61218 19.625,3.125 -1,5.625 -40.875,0 29.625,-169 -16.125,-3 1,-5.625 37.375,0 -29.625,168.875" id="path3012" style="fill:#c00000;fill-opacity:1"/>
      <path d="m 134.5,946.61218 19.625,3.125 -1,5.625 -40.875,0 19.125,-108.75 -16.125,-3.125 1,-5.625 37.375,0 -19.125,108.75 m 26.875,-147.125 c -6e-5,1.83349 -0.37506,3.58349 -1.125,5.25 -0.66673,1.58348 -1.62506,3.00015 -2.875,4.25 -1.25006,1.25015 -2.70839,2.25015 -4.375,3 -1.66672,0.66681 -3.41672,1.00014 -5.25,1 -1.83338,1.4e-4 -3.58338,-0.33319 -5.25,-1 -1.58338,-0.74985 -3.00004,-1.74985 -4.25,-3 -1.25004,-1.24985 -2.25004,-2.66652 -3,-4.25 -0.6667,-1.66651 -1.00004,-3.41651 -1,-5.25 -4e-5,-1.83317 0.3333,-3.58317 1,-5.25 0.74996,-1.6665 1.74996,-3.12483 3,-4.375 1.24996,-1.24983 2.66662,-2.20816 4.25,-2.875 1.66662,-0.74983 3.41662,-1.12483 5.25,-1.125 1.83328,1.7e-4 3.58328,0.37517 5.25,1.125 1.66661,0.66684 3.12494,1.62517 4.375,2.875 1.24994,1.25017 2.20827,2.7085 2.875,4.375 0.74994,1.66683 1.12494,3.41683 1.125,5.25" id="path3014" style="fill:#ffc000;fill-opacity:1"/>
      <path d="m 278.125,862.11218 c 2.74989,-3.91657 5.74989,-7.54156 9,-10.875 3.24988,-3.33322 6.58321,-6.20822 10,-8.625 3.41654,-2.49988 6.87486,-4.41655 10.375,-5.75 3.58319,-1.41654 7.08319,-2.12488 10.5,-2.125 6.99984,1.2e-4 12.49984,2.25012 16.5,6.75 4.08316,4.41678 6.12483,10.83344 6.125,19.25 -1.7e-4,1.2501 -0.0835,2.75009 -0.25,4.5 -0.16684,1.75009 -0.41684,3.62509 -0.75,5.625 -0.25017,2.00009 -0.54184,4.04175 -0.875,6.125 -0.3335,2.08341 -0.66684,4.04174 -1,5.875 l -11,63.75 16.375,3.125 -1.125,5.625 -37.625,0 12.875,-72.75 c 0.33318,-1.74992 0.66652,-3.62492 1,-5.625 0.33318,-2.08325 0.62485,-4.08325 0.875,-6 0.33318,-1.91658 0.58318,-3.66658 0.75,-5.25 0.16652,-1.58324 0.24985,-2.8749 0.25,-3.875 -1.5e-4,-3.7499 -0.87515,-6.7499 -2.625,-9 -1.75015,-2.33323 -4.50014,-3.49989 -8.25,-3.5 -1.91681,1.1e-4 -4.0418,0.50011 -6.375,1.5 -2.33346,1.00011 -4.70846,2.3751 -7.125,4.125 -2.41679,1.66677 -4.79179,3.6251 -7.125,5.875 -2.25012,2.25009 -4.33345,4.62509 -6.25,7.125 -1.91678,2.50009 -3.54178,5.08342 -4.875,7.75 -1.33344,2.66675 -2.20844,5.20841 -2.625,7.625 l -12.375,72 -20.75,0 12.75,-72.75 c 0.33325,-1.74992 0.66658,-3.62492 1,-5.625 0.33325,-2.08325 0.66658,-4.08325 1,-6 0.33325,-1.91658 0.58325,-3.66658 0.75,-5.25 0.24991,-1.58324 0.37491,-2.8749 0.375,-3.875 -9e-5,-3.7499 -0.91675,-6.7499 -2.75,-9 -1.83342,-2.33323 -4.70841,-3.49989 -8.625,-3.5 -1.91674,1.1e-4 -4.04174,0.50011 -6.375,1.5 -2.3334,1.00011 -4.75007,2.3751 -7.25,4.125 -2.41673,1.66677 -4.83339,3.6251 -7.25,5.875 -2.33339,2.25009 -4.50005,4.62509 -6.5,7.125 -1.91671,2.50009 -3.54171,5.08342 -4.875,7.75 -1.33338,2.66675 -2.20838,5.20841 -2.625,7.625 l -12.375,72 -20.75,0 19.125,-108.75 -14.75,-3.125 1,-5.625 34.75,0 -3.5,24.25 c 2.74995,-3.91657 5.74995,-7.54156 9,-10.875 3.24994,-3.33322 6.62494,-6.20822 10.125,-8.625 3.49993,-2.49988 6.99993,-4.41655 10.5,-5.75 3.58325,-1.41654 7.08325,-2.12488 10.5,-2.125 7.33324,1.2e-4 12.9999,2.33345 17,7 4.08323,4.58344 6.12489,11.3751 6.125,20.375" id="path3016" style="fill:#00b050;fill-opacity:1"/>
      <path d="m 448.375,861.86218 c -9e-5,-3.7499 -1.00009,-6.79156 -3,-9.125 -2.00009,-2.33323 -5.16675,-3.49989 -9.5,-3.5 -3.50008,1.1e-4 -7.08341,0.83344 -10.75,2.5 -3.66673,1.58344 -7.2084,3.66677 -10.625,6.25 -3.41672,2.58343 -6.58339,5.54176 -9.5,8.875 -2.91671,3.25009 -5.37505,6.50008 -7.375,9.75 l -13.75,78.75 -20.75,0 19.125,-108.875 -14.75,-3.125 1,-5.625 34.75,0 -3.375,24 c 3.16662,-4.08323 6.45828,-7.79156 9.875,-11.125 3.49994,-3.33322 7.08327,-6.16655 10.75,-8.5 3.74993,-2.33322 7.54159,-4.12488 11.375,-5.375 3.91658,-1.33321 7.87491,-1.99988 11.875,-2 3.83324,1.2e-4 7.29157,0.50012 10.375,1.5 3.16656,1.00012 5.83323,2.58345 8,4.75 2.24989,2.16678 3.95822,4.91678 5.125,8.25 1.24989,3.33344 1.87488,7.29177 1.875,11.875 -1.2e-4,1.0001 -0.12512,2.37509 -0.375,4.125 -0.16678,1.66676 -0.41678,3.50009 -0.75,5.5 -0.33345,2.00009 -0.66678,4.08342 -1,6.25 -0.33345,2.08341 -0.66678,4.04174 -1,5.875 l -11,63.875 16.375,3 -1,5.625 -37.625,0 12.75,-72.75 c 0.33324,-1.83326 0.66657,-3.74992 1,-5.75 0.33324,-1.99992 0.62491,-3.95825 0.875,-5.875 0.33324,-1.91658 0.58324,-3.66658 0.75,-5.25 0.16657,-1.58324 0.24991,-2.8749 0.25,-3.875" id="path3018" style="fill:#0070c0;fill-opacity:1"/>
      <path d="m 488.5,837.86218 32,0 18.125,91.5 29.375,-50.75 c 2.74991,-4.83325 4.74991,-9.24991 6,-13.25 1.33324,-4.08324 1.99991,-7.70823 2,-10.875 -9e-5,-3.08323 -0.87509,-5.54156 -2.625,-7.375 -1.75009,-1.83322 -3.62509,-3.04155 -5.625,-3.625 l 1,-5.625 23.75,0 c 0.74989,0.66679 1.45822,1.70845 2.125,3.125 0.74989,1.41678 1.12489,3.00011 1.125,4.75 -1.1e-4,2.66678 -0.70845,6.20844 -2.125,10.625 -1.41678,4.33343 -4.16677,9.95842 -8.25,16.875 l -49.5,83.375 c -4.91672,8.33333 -9.58338,15.83332 -14,22.5 -4.33337,6.66664 -8.70836,12.3333 -13.125,17 -4.33336,4.66662 -8.91668,8.24992 -13.75,10.75002 -4.75001,2.4999 -10,3.7499 -15.75,3.75 -2.16666,-10e-5 -4.04166,-0.042 -5.625,-0.125 -1.66666,-0.083 -3.16666,-0.2501 -4.5,-0.5 -1.41665,-0.1667 -2.79165,-0.3751 -4.125,-0.625 -1.33331,-0.2501 -2.79165,-0.5834 -4.375,-1 l 4.625,-25.37502 5.625,0 2,12 c 2.08334,1.91663 5.5,2.87496 10.25,2.875 3.58333,-4e-5 7.04166,-1.04171 10.375,-3.125 3.41665,-2.08337 6.62498,-4.7917 9.625,-8.125 3.08331,-3.25003 5.91664,-6.87502 8.5,-10.875 2.66663,-4.00001 5.04163,-7.87501 7.125,-11.625 l 5.625,-10.25 -22.875,-107.25 -14,-3.125 1,-5.625" id="path3020" style="font-size:256px;font-style:italic;font-variant:normal;font-stretch:normal;font-family:Liberation Serif;-inkscape-font-specification:Liberation Serif Italic"/>
    </g>
    <g id="text3012-2" style="font-size:40px;font-style:normal;font-weight:normal;line-height:125%;letter-spacing:0px;word-spacing:0px;fill:url(#linearGradient4083);fill-opacity:1;fill-rule:nonzero;stroke:none;display:inline;font-family:Sans">
      <path d="m 134.475,946.61224 19.625,3.125 -1,5.625 -40.875,0 19.125,-108.74999 -16.125,-3.125 1,-5.625 37.375,0 -19.125,108.74999 m 26.87499,-147.12499 c -6e-5,1.83349 -0.37506,3.58349 -1.125,5.25 -0.66672,1.58348 -1.62506,3.00015 -2.875,4.25 -1.25005,1.25015 -2.70838,2.25015 -4.37499,3 -1.66672,0.66681 -3.41672,1.00014 -5.25,1 -1.83339,1.4e-4 -3.58338,-0.33319 -5.25,-1 -1.58338,-0.74985 -3.00005,-1.74985 -4.25,-3 -1.25004,-1.24985 -2.25004,-2.66652 -3,-4.25 -0.66671,-1.66651 -1.00004,-3.41651 -1,-5.25 -4e-5,-1.83317 0.33329,-3.58317 1,-5.25 0.74996,-1.6665 1.74996,-3.12483 3,-4.375 1.24995,-1.24983 2.66662,-2.20816 4.25,-2.875 1.66662,-0.74983 3.41661,-1.12483 5.25,-1.125 1.83328,1.7e-4 3.58328,0.37517 5.25,1.125 1.66661,0.66684 3.12494,1.62517 4.37499,2.875 1.24994,1.25017 2.20828,2.7085 2.875,4.375 0.74994,1.66683 1.12494,3.41683 1.125,5.25" id="path3003" style="font-size:255.99998474px;font-style:italic;font-variant:normal;font-stretch:normal;font-family:Liberation Serif;-inkscape-font-specification:Liberation Serif Italic"/>
      <path d="m 278.09998,862.11225 c 2.74989,-3.91657 5.74989,-7.54157 9,-10.875 3.24988,-3.33323 6.58321,-6.20822 10,-8.625 3.41654,-2.49988 6.87487,-4.41655 10.375,-5.75 3.58319,-1.41655 7.08319,-2.12488 10.5,-2.125 6.99985,1.2e-4 12.49984,2.25012 16.5,6.75 4.08316,4.41678 6.12483,10.83344 6.125,19.25 -1.7e-4,1.25009 -0.0835,2.75009 -0.25,4.5 -0.16684,1.75009 -0.41684,3.62509 -0.75,5.625 -0.25017,2.00008 -0.54184,4.04175 -0.875,6.125 -0.3335,2.08341 -0.66683,4.04174 -1,5.875 l -11,63.74999 16.375,3.125 -1.125,5.625 -37.625,0 12.875,-72.74999 c 0.33319,-1.74993 0.66652,-3.62493 1,-5.625 0.33319,-2.08325 0.62485,-4.08325 0.875,-6 0.33318,-1.91658 0.58318,-3.66658 0.75,-5.25 0.16652,-1.58324 0.24985,-2.87491 0.25,-3.875 -1.5e-4,-3.7499 -0.87515,-6.7499 -2.625,-9 -1.75014,-2.33323 -4.50014,-3.49989 -8.25,-3.5 -1.9168,1.1e-4 -4.0418,0.50011 -6.375,1.5 -2.33346,1.0001 -4.70846,2.3751 -7.125,4.125 -2.41679,1.66676 -4.79179,3.6251 -7.125,5.875 -2.25011,2.25009 -4.33344,4.62509 -6.25,7.125 -1.91677,2.50008 -3.54177,5.08341 -4.875,7.75 -1.33344,2.66674 -2.20844,5.20841 -2.625,7.625 l -12.37499,71.99999 -20.75,0 12.75,-72.74999 c 0.33324,-1.74993 0.66658,-3.62493 1,-5.625 0.33324,-2.08325 0.66658,-4.08325 1,-6 0.33324,-1.91658 0.58324,-3.66658 0.75,-5.25 0.24991,-1.58324 0.37491,-2.87491 0.375,-3.875 -9e-5,-3.7499 -0.91676,-6.7499 -2.75,-9 -1.83342,-2.33323 -4.70842,-3.49989 -8.625,-3.5 -1.91675,1.1e-4 -4.04174,0.50011 -6.375,1.5 -2.33341,1.0001 -4.75007,2.3751 -7.25,4.125 -2.41673,1.66676 -4.83339,3.6251 -7.25,5.875 -2.33339,2.25009 -4.50005,4.62509 -6.5,7.125 -1.91672,2.50008 -3.54171,5.08341 -4.875,7.75 -1.33338,2.66674 -2.20838,5.20841 -2.625,7.625 l -12.375,71.99999 -20.75,0 19.125,-108.74999 -14.75,-3.125 1,-5.625 34.75,0 -3.5,24.25 c 2.74995,-3.91657 5.74995,-7.54157 9,-10.875 3.24994,-3.33323 6.62494,-6.20822 10.125,-8.625 3.49993,-2.49988 6.99992,-4.41655 10.5,-5.75 3.58325,-1.41655 7.08325,-2.12488 10.5,-2.125 7.33324,1.2e-4 12.9999,2.33345 16.99999,7 4.08323,4.58344 6.1249,11.3751 6.125,20.375" id="path3005" style="font-size:255.99998474px;font-style:italic;font-variant:normal;font-stretch:normal;font-family:Liberation Serif;-inkscape-font-specification:Liberation Serif Italic"/>
      <path d="m 448.34996,861.86225 c -9e-5,-3.7499 -1.00009,-6.79157 -3,-9.125 -2.00009,-2.33323 -5.16675,-3.49989 -9.5,-3.5 -3.50008,1.1e-4 -7.0834,0.83344 -10.75,2.5 -3.66673,1.58344 -7.20839,3.66677 -10.625,6.25 -3.41672,2.58343 -6.58338,5.54176 -9.5,8.875 -2.91671,3.25008 -5.37504,6.50008 -7.37499,9.75 l -13.75,78.74999 -20.75,0 19.125,-108.87499 -14.75,-3.125 1,-5.625 34.75,0 -3.375,24 c 3.16661,-4.08324 6.45828,-7.79157 9.87499,-11.125 3.49995,-3.33323 7.08327,-6.16656 10.75,-8.5 3.74993,-2.33322 7.5416,-4.12488 11.375,-5.375 3.91659,-1.33321 7.87492,-1.99988 11.875,-2 3.83324,1.2e-4 7.29157,0.50012 10.375,1.5 3.16657,1.00012 5.83323,2.58345 8,4.75 2.24989,2.16678 3.95822,4.91678 5.125,8.25 1.24989,3.33344 1.87489,7.29177 1.875,11.875 -1.1e-4,1.00009 -0.12511,2.37509 -0.375,4.125 -0.16678,1.66675 -0.41678,3.50009 -0.75,5.5 -0.33345,2.00008 -0.66678,4.08341 -1,6.25 -0.33344,2.08341 -0.66678,4.04174 -1,5.875 l -11,63.87499 16.375,3 -1,5.625 -37.625,0 12.75,-72.74999 c 0.33324,-1.83326 0.66658,-3.74993 1,-5.75 0.33324,-1.99992 0.62491,-3.95825 0.875,-5.875 0.33324,-1.91658 0.58324,-3.66658 0.75,-5.25 0.16657,-1.58324 0.24991,-2.87491 0.25,-3.875" id="path3007" style="font-size:255.99998474px;font-style:italic;font-variant:normal;font-stretch:normal;font-family:Liberation Serif;-inkscape-font-specification:Liberation Serif Italic"/>
      <path d="m 488.47497,837.86225 32,0 18.12499,91.5 29.375,-50.75 c 2.74991,-4.83325 4.74991,-9.24992 6,-13.25 1.33324,-4.08324 1.99991,-7.70824 2,-10.875 -9e-5,-3.08323 -0.87509,-5.54156 -2.625,-7.375 -1.75009,-1.83322 -3.62509,-3.04156 -5.625,-3.625 l 1,-5.625 23.75,0 c 0.74989,0.66678 1.45822,1.70845 2.125,3.125 0.74989,1.41678 1.12489,3.00011 1.125,4.75 -1.1e-4,2.66677 -0.70845,6.20844 -2.125,10.625 -1.41678,4.33343 -4.16677,9.95842 -8.25,16.875 l -49.5,83.37499 c -4.91671,8.33333 -9.58337,15.83332 -13.99999,22.5 -4.33337,6.66664 -8.70837,12.3333 -13.125,17 -4.33336,4.66666 -8.91669,8.24996 -13.75,10.74996 -4.75001,2.5 -10.00001,3.75 -15.75,3.75 -2.16666,0 -4.04166,-0.042 -5.625,-0.125 -1.66666,-0.083 -3.16666,-0.25 -4.5,-0.5 -1.41665,-0.1667 -2.79165,-0.375 -4.125,-0.625 -1.33332,-0.25 -2.79165,-0.5833 -4.375,-1 l 4.625,-25.37496 5.625,0 2,12 c 2.08334,1.91663 5.5,2.87496 10.25,2.875 3.58333,-4e-5 7.04166,-1.04171 10.375,-3.125 3.41665,-2.08337 6.62498,-4.7917 9.625,-8.125 3.08331,-3.25003 5.91664,-6.87502 8.5,-10.875 2.66663,-4.00001 5.04163,-7.87501 7.125,-11.625 l 5.625,-10.25 -22.875,-107.24999 -14,-3.125 1,-5.625" id="path3009" style="font-size:255.99998474px;font-style:italic;font-variant:normal;font-stretch:normal;font-family:Liberation Serif;-inkscape-font-specification:Liberation Serif Italic"/>
    </g>
  </g>
</svg>